<svg width="100" height="100" viewBox="0 0 100 100" fill="none" xmlns="http://www.w3.org/2000/svg">
<path d="M61.1111 30.5556C61.1111 47.4309 47.4309 61.1111 30.5556 61.1111C13.6802 61.1111 0 47.4309 0 30.5556C0 13.6802 13.6802 0 30.5556 0C47.4309 0 61.1111 13.6802 61.1111 30.5556Z" fill="#4C6EBE"/>
<path d="M61.1111 69.4444C61.1111 86.3198 47.4309 100 30.5556 100C13.6802 100 2.8257e-07 86.3198 2.8257e-07 69.4444C2.8257e-07 52.5691 13.6802 38.8889 30.5556 38.8889C47.4309 38.8889 61.1111 52.5691 61.1111 69.4444Z" fill="#4C6EBE"/>
<path d="M100 30.5556C100 47.4309 86.3198 61.1111 69.4444 61.1111C52.5691 61.1111 38.8889 47.4309 38.8889 30.5556C38.8889 13.6802 52.5691 0 69.4444 0C86.3198 0 100 13.6802 100 30.5556Z" fill="#4C6EBE"/>
<path d="M100 69.4444C100 86.3198 86.3198 100 69.4444 100C52.5691 100 38.8889 86.3198 38.8889 69.4444C38.8889 52.5691 52.5691 38.8889 69.4444 38.8889C86.3198 38.8889 100 52.5691 100 69.4444Z" fill="#4C6EBE"/>
</svg>
