<svg width="100" height="100" viewBox="0 0 100 100" fill="none" xmlns="http://www.w3.org/2000/svg">
<path d="M40.5758 5.25582C44.9045 -1.75195 55.0955 -1.75194 59.4242 5.25584L71.535 24.8621C72.4396 26.3268 73.6732 27.5603 75.1379 28.465L94.7442 40.5758C101.752 44.9045 101.752 55.0955 94.7442 59.4242L75.1379 71.535C73.6732 72.4396 72.4396 73.6732 71.535 75.1378L59.4242 94.7442C55.0955 101.752 44.9045 101.752 40.5758 94.7442L28.465 75.1378C27.5603 73.6732 26.3268 72.4396 24.8621 71.535L5.25582 59.4242C-1.75195 55.0955 -1.75194 44.9045 5.25584 40.5758L24.8622 28.465C26.3268 27.5603 27.5603 26.3268 28.465 24.8621L40.5758 5.25582Z" fill="#2DA5A2"/>
</svg>
