<svg width="100" height="100" viewBox="0 0 100 100" fill="none" xmlns="http://www.w3.org/2000/svg">
<path d="M43.3499 2.08805C47.3462 -0.696016 52.6538 -0.696016 56.6501 2.08805L64.7984 7.76453C66.1769 8.72488 67.7471 9.37527 69.4009 9.67097L79.1765 11.4188C83.971 12.276 87.724 16.029 88.5812 20.8235L90.329 30.5991C90.6247 32.2529 91.2751 33.8231 92.2355 35.2016L97.912 43.3499C100.696 47.3462 100.696 52.6538 97.912 56.6502L92.2355 64.7984C91.2751 66.1769 90.6247 67.7471 90.329 69.4009L88.5812 79.1765C87.724 83.971 83.971 87.724 79.1765 88.5812L69.4009 90.329C67.7471 90.6247 66.1769 91.2751 64.7984 92.2355L56.6502 97.912C52.6538 100.696 47.3462 100.696 43.3499 97.912L35.2016 92.2355C33.8231 91.2751 32.2529 90.6247 30.5991 90.329L20.8235 88.5812C16.029 87.724 12.276 83.971 11.4188 79.1765L9.67097 69.4009C9.37527 67.7471 8.72488 66.1769 7.76453 64.7984L2.08805 56.6501C-0.696016 52.6538 -0.696016 47.3462 2.08805 43.3499L7.76453 35.2016C8.72488 33.8231 9.37527 32.2529 9.67097 30.5991L11.4188 20.8235C12.276 16.029 16.029 12.276 20.8235 11.4188L30.5991 9.67097C32.2529 9.37527 33.8231 8.72488 35.2016 7.76453L43.3499 2.08805Z" fill="#B16786"/>
</svg>
